<svg width="102" height="102" viewBox="0 0 102 102" fill="none" xmlns="http://www.w3.org/2000/svg">
<path d="M51 0.5C78.8904 0.5 101.5 23.1096 101.5 51C101.5 78.8904 78.8904 101.5 51 101.5C23.1096 101.5 0.5 78.8904 0.5 51C0.5 23.1096 23.1096 0.5 51 0.5Z" fill="#4C90F7" stroke="white"/>
<path fill-rule="evenodd" clip-rule="evenodd" d="M32.704 36.015C31.7885 36.573 30.529 37.54 29.9055 38.1635C29.2815 38.7875 28.3675 39.914 27.874 40.6675C27.38 41.421 26.7565 42.9845 26.488 44.142C26.2195 45.2995 26 47.034 26 47.9965C26 48.959 26.215 50.6465 26.478 51.7465C26.7405 52.8465 27.665 55.1415 28.5315 56.847C29.5665 58.8825 31.6115 61.461 34.4875 64.356C36.897 66.7805 39.6555 69.3155 40.618 69.989C41.5805 70.6625 42.674 71.511 43.0485 71.8745C43.4225 72.238 44.8215 73.0895 46.1565 73.766C47.492 74.443 48.895 74.9965 49.274 74.9965C49.653 74.9965 51.404 74.068 53.1655 72.933C54.927 71.798 56.4805 70.718 56.618 70.534C56.7555 70.3495 57.6555 69.6495 58.618 68.978C59.5805 68.307 61.518 66.6105 62.9235 65.2075C64.329 63.805 66.585 60.9895 67.9365 58.952C69.288 56.914 70.7075 54.3465 71.091 53.2465C71.4745 52.1465 71.7785 49.852 71.766 48.1475C71.754 46.4435 71.437 44.0105 71.0625 42.741C70.6875 41.4715 69.6985 39.688 68.864 38.7775C68.03 37.8665 66.5645 36.644 65.608 36.061C64.243 35.229 63.0595 35 60.118 35C57.188 35 55.991 35.23 54.6445 36.051C53.6965 36.629 52.285 37.7825 51.5075 38.6145C50.7305 39.4465 49.8745 40.492 49.606 40.937C49.1695 41.6615 49.026 41.6355 48.243 40.691C47.762 40.1105 46.918 39.069 46.368 38.377C45.818 37.685 44.5805 36.642 43.618 36.0595C42.248 35.23 41.0535 35 38.118 35C35.23 35 33.9855 35.2335 32.704 36.015Z" fill="white"/>
</svg>
